<svg width="121" height="35" xmlns="http://www.w3.org/2000/svg" viewBox="0 0 618 180"><path fill="#FFF" d="M50 4.5h1.5V3L50 4.5z"/><path fill="#FFF" d="M50.7 3v16.8h27.7v159.6h25.5V19.8h26.2V3H50.7z"/><path fill="#FFF" d="M114.9 47.5h23.3v7.3s13.1-10.9 26.2-8.7v23.3h-8s-17.5.7-16.8 12.4v96.9h-24.8V47.5zm116.5-.7H257l15.3 84.5 13.8-83.8h16l-24.8 131.9h-19.7L231.4 46.8z"/><path fill="#FFF" d="M345.1 153.9v-29.1h25.5s6.6 53.9-35.7 55.4c-43 1.5-37.9-78-37.9-78s-2.9-51.7 37.2-56.1c0 0 40.8-2.9 37.2 69.2h-48.1v40.1s1.5 15.3 11.7 15.3c10.1-.8 10.1-16.8 10.1-16.8zm-.7-79.4c-.7-18.9-10.9-18.9-10.9-18.9-10.9 0-10.9 18.9-10.9 18.9v29.9h21.1c.7-.8 1.4-11 .7-29.9zm107.1 79.4v-29.1H477s6.6 53.9-35.7 55.4c-43 1.5-37.9-78-37.9-78s-2.9-51.7 37.2-56.1c0 0 40.8-2.9 37.2 69.2h-48.1v40.1s1.5 15.3 11.7 15.3c9.4-.8 10.1-16.8 10.1-16.8zm-.7-79.4c-.7-18.9-10.9-18.9-10.9-18.9-10.9 0-10.9 18.9-10.9 18.9v29.9h21.1c.7-.8.7-11 .7-29.9zM375 179.4h24V.9h-24v178.5zM481.4 46h23.3v7.3s13.1-10.9 26.2-8.7v23.3h-8s-16.8.7-16.8 12.4v99.1h-24.8V46h.1zM165.9 86.9s-5.1-40.1 34.2-40.8c0 0 33.5-2.2 33.5 40.8v92.5H211v-7.3s-8.7 8.7-22.6 8.7c-13.8 0-20.4-9.5-21.9-13.1-4.4-7.3-5.8-35 1.5-46.6 0 0 5.1-8 16.8-16 5.8-3.6 9.5-6.6 12.4-8 1.5-.7 2.9-2.2 3.6-2.9 0 0 8-5.8 8.7-8V68.6s-.7-12.4-9.5-12.4-10.2 13.1-10.2 13.1v17.5h-23.9v.1zm33.5 76.5c8.7 0 10.2-11.7 10.2-11.7v-50.3c-1.5 1.5-5.1 3.6-9.5 5.8-4.4 2.9-8.7 5.1-10.2 6.6-2.2 2.9-2.9 6.6-2.9 6.6v32.1c.7.7 2.9 10.9 12.4 10.9zM158.6 14c-1.5-5.1-4.4-6.6-6.6-6.6-6.6 0-8 9.5-8 13.8 0 6.6 2.2 13.1 7.3 13.1.7 0 5.8 0 8-6.6l6.6 2.2c-.7 2.2-.7 3.6-2.9 6.6-2.2 2.9-5.1 5.8-10.9 5.8-6.6 0-15.3-4.4-15.3-18.9C136.7 9.6 144 3 152 3c9.5 0 12.4 8.7 12.4 10.2l-5.8.8zm19.7 26.9c5.8 0 11.7-4.4 11.7-14.6 0-6.6-2.2-13.8-11.7-13.8-5.8 0-10.9 5.1-10.9 14.6-.8 10.2 5.8 13.8 10.9 13.8zm0-5.1c-5.1 0-5.1-7.3-5.1-9.5 0-4.4.7-9.5 5.1-9.5s5.1 6.6 5.1 8.7c-.8 2.3-.8 10.3-5.1 10.3zm34.2 4.4h-6.6V20.5c0-1.5 0-2.9-2.2-2.9s-3.6 1.5-5.8 3.6v18.9h-6.6V12.5h6.6v3.6c1.5-1.5 4.4-4.4 8.7-4.4 3.6 0 5.8 7.3 5.8 7.3v21.2zm24.8 0V.9h-6.6v14.6c-2.9-3.6-5.8-3.6-6.6-3.6-5.8 0-9.5 6.6-9.5 13.8 0 8 3.6 13.8 9.5 13.8 3.6 0 5.8-2.9 6.6-3.6v2.9h6.6v1.4zm-11-21.8c2.2 0 3.6 1.5 4.4 2.9V33c-.7.7-2.2 2.9-4.4 2.9-4.4 0-5.1-5.8-5.1-8 0-3 0-9.5 5.1-9.5zm24.1-8.8l8.7-8h-7.3l-6.6 8h5.2zM246 27.8c0 6.6 3.6 7.3 5.1 7.3 2.9 0 4.4-2.2 5.1-3.6l5.1 2.2c-.7 1.5-3.6 7.3-10.2 7.3s-11.7-5.1-11.7-14.6c0-8 5.1-13.8 11.7-13.8 5.8 0 8.7 3.6 10.2 7.3.7 2.9.7 5.1.7 8h-16zm10.2-4.3c0-5.1-3.6-6.6-5.1-6.6-2.2 0-5.1 1.5-5.1 6.6h10.2zm27-21.9l14.6 25.5V1.6h6.6v38.6h-6.6l-14.6-27v27h-6.6V1.6h6.6zm45.2 37.9c-.7-1.5-.7-3.6-.7-5.1V22c0-7.3-5.8-8.7-9.5-8.7-3.6 0-7.3 1.5-10.2 5.1l3.6 3.6c1.5-2.2 3.6-3.6 5.8-3.6s4.4 1.5 4.4 4.4v.7c-7.3.7-14.6 3.6-14.6 10.2 0 4.4 3.6 7.3 8 7.3 3.6 0 5.8-2.2 7.3-2.9 0 .7 0 1.5.7 2.9h5.1l.1-1.5zm-15.3-7.3c0-4.4 6.6-5.8 8.7-5.8V33c-.7.7-3.6 2.9-5.8 2.9-1.5-.8-2.9-1.5-2.9-3.7zm32.8-13.1c-2.9-2.2-4.4-2.2-5.8-2.2-2.2 0-3.6 1.5-3.6 2.9 0 2.2 2.2 2.9 5.1 3.6 3.6.7 9.5 2.2 9.5 8 0 3.6-2.9 8.7-10.9 8.7-5.8 0-8.7-2.9-10.2-5.1l3.6-2.9c1.5 1.5 3.6 2.9 6.6 2.9 2.2 0 4.4-.7 4.4-2.9s-2.2-2.9-5.1-3.6c-2.9-.7-9.5-2.2-9.5-8.7 0-4.4 4.4-8.7 9.5-8.7 4.4 0 8 2.2 9.5 3.6l-3.1 4.4zm15.3-15.3v8.7h4.4v5.1h-4.4v14.6c0 2.2 2.2 2.2 4.4 2.9v5.8c-3.6 0-5.8 0-8-1.5s-2.9-4.4-2.9-7.3V17.6H351v-5.1h3.6V3.8h6.6z"/></svg>