<svg id="svg" version="1.1" xmlns="http://www.w3.org/2000/svg" xmlns:xlink="http://www.w3.org/1999/xlink" width="400" height="400" viewBox="0, 0, 400,400"><g id="svgg"><path id="path0" d="M332.400 104.800 C 332.400 105.033,331.067 105.200,329.200 105.200 C 327.333 105.200,326.000 105.367,326.000 105.600 C 326.000 105.820,325.460 106.000,324.800 106.000 C 324.140 106.000,323.600 106.180,323.600 106.400 C 323.600 106.620,323.240 106.800,322.800 106.800 C 322.360 106.800,322.000 106.980,322.000 107.200 C 322.000 107.420,321.640 107.600,321.200 107.600 C 320.760 107.600,320.400 107.780,320.400 108.000 C 320.400 108.220,320.080 108.400,319.688 108.400 C 319.297 108.400,318.717 108.760,318.400 109.200 C 318.083 109.640,317.543 110.000,317.200 110.000 C 316.857 110.000,316.317 110.360,316.000 110.800 C 315.683 111.240,315.220 111.600,314.971 111.600 C 314.722 111.600,313.954 112.140,313.263 112.800 C 312.572 113.460,311.808 114.000,311.564 114.000 C 311.320 114.000,310.617 114.540,310.000 115.200 C 309.383 115.860,308.697 116.400,308.474 116.400 C 308.252 116.400,306.973 117.480,305.632 118.800 C 304.292 120.120,303.004 121.200,302.770 121.200 C 302.255 121.200,296.400 127.130,296.400 127.652 C 296.400 127.855,294.060 130.352,291.200 133.200 C 288.340 136.048,286.000 138.562,286.000 138.787 C 286.000 139.012,282.940 142.263,279.200 146.012 C 275.460 149.760,272.400 153.006,272.400 153.224 C 272.400 153.443,271.590 154.431,270.600 155.421 C 269.610 156.411,268.800 157.453,268.800 157.736 C 268.800 158.019,268.291 158.738,267.669 159.334 C 266.429 160.522,266.669 160.526,258.200 159.154 C 256.880 158.940,254.720 158.601,253.400 158.400 C 252.080 158.199,249.830 157.839,248.400 157.600 C 246.970 157.361,244.720 157.001,243.400 156.800 C 242.080 156.599,239.830 156.239,238.400 156.000 C 236.970 155.761,234.630 155.387,233.200 155.170 C 228.055 154.389,225.757 154.028,223.200 153.600 C 221.770 153.361,219.520 153.001,218.200 152.800 C 216.880 152.599,214.630 152.239,213.200 152.000 C 211.770 151.761,209.520 151.401,208.200 151.200 C 205.707 150.821,201.923 150.222,197.800 149.554 C 196.480 149.340,194.320 149.001,193.000 148.800 C 191.680 148.599,189.430 148.239,188.000 148.000 C 186.570 147.761,184.320 147.401,183.000 147.200 C 181.680 146.999,179.430 146.639,178.000 146.400 C 176.570 146.161,174.275 145.793,172.900 145.582 C 171.525 145.372,169.275 145.028,167.900 144.818 C 166.525 144.607,164.230 144.239,162.800 144.000 C 156.747 142.987,157.759 142.744,152.603 146.451 C 150.041 148.293,146.968 150.482,145.773 151.316 C 143.436 152.948,143.072 153.600,144.500 153.600 C 144.995 153.600,146.660 153.875,148.200 154.212 C 149.740 154.548,151.900 154.998,153.000 155.211 C 154.100 155.424,155.810 155.779,156.800 156.000 C 157.790 156.221,159.500 156.579,160.600 156.796 C 161.700 157.012,164.220 157.534,166.200 157.955 C 173.392 159.483,178.238 160.497,180.000 160.843 C 180.990 161.037,182.610 161.377,183.600 161.599 C 184.590 161.821,186.300 162.181,187.400 162.400 C 188.500 162.619,190.210 162.979,191.200 163.200 C 192.190 163.421,193.900 163.779,195.000 163.996 C 196.100 164.212,198.620 164.734,200.600 165.155 C 207.792 166.683,212.638 167.697,214.400 168.043 C 215.390 168.237,217.010 168.577,218.000 168.799 C 218.990 169.021,220.742 169.372,221.893 169.579 C 223.044 169.786,224.574 170.220,225.293 170.543 C 226.724 171.185,228.999 171.690,233.600 172.385 C 235.250 172.635,237.469 173.010,238.531 173.219 C 239.592 173.429,240.987 173.600,241.631 173.600 C 242.304 173.600,242.800 173.814,242.800 174.104 C 242.800 174.852,227.100 190.400,226.345 190.400 C 225.617 190.400,223.556 189.592,218.304 187.247 C 217.262 186.781,216.322 186.400,216.216 186.400 C 216.110 186.400,215.073 185.971,213.912 185.446 C 212.750 184.922,209.550 183.551,206.800 182.400 C 204.050 181.249,200.850 179.878,199.688 179.354 C 198.527 178.829,197.496 178.400,197.398 178.400 C 197.300 178.400,196.041 177.860,194.600 177.200 C 193.159 176.540,191.893 176.000,191.786 176.000 C 191.679 176.000,190.783 175.640,189.796 175.200 C 188.808 174.760,187.192 174.040,186.204 173.600 C 185.217 173.160,184.321 172.800,184.214 172.800 C 184.107 172.800,182.841 172.260,181.400 171.600 C 179.959 170.940,178.700 170.400,178.602 170.400 C 178.504 170.400,177.470 169.964,176.305 169.431 C 175.140 168.898,173.202 168.074,172.000 167.600 C 170.798 167.126,168.860 166.302,167.695 165.769 C 166.530 165.236,165.496 164.800,165.398 164.800 C 165.300 164.800,164.088 164.282,162.705 163.648 C 159.449 162.157,156.692 161.223,154.200 160.768 C 153.100 160.567,151.390 160.221,150.400 160.000 C 148.625 159.604,145.247 158.916,143.100 158.515 C 142.435 158.391,142.000 158.486,142.000 158.755 C 142.000 159.000,142.272 159.200,142.605 159.200 C 142.938 159.200,143.523 159.359,143.905 159.553 C 144.542 159.877,145.026 160.083,147.700 161.164 C 148.195 161.364,155.980 164.440,165.000 168.000 C 174.020 171.560,181.805 174.636,182.300 174.836 C 183.943 175.500,185.190 175.996,186.100 176.346 C 187.601 176.924,189.360 177.673,190.095 178.047 C 190.477 178.241,191.062 178.400,191.395 178.400 C 192.708 178.400,191.834 179.944,188.791 183.000 C 185.091 186.716,184.479 188.027,185.217 190.661 C 185.921 193.176,189.203 196.574,191.928 197.609 C 195.846 199.098,195.831 199.105,202.622 192.365 L 208.703 186.330 212.651 188.432 C 214.823 189.588,218.040 191.311,219.800 192.260 C 221.560 193.209,224.305 194.661,225.900 195.487 C 229.560 197.383,229.568 197.330,224.880 202.161 C 222.723 204.382,219.618 207.635,217.980 209.389 C 215.613 211.922,203.456 224.459,199.378 228.571 C 195.358 232.625,188.549 241.553,182.184 251.119 L 177.047 258.838 174.824 258.599 C 173.601 258.467,171.430 258.196,170.000 257.997 C 168.570 257.797,165.780 257.439,163.800 257.200 C 161.820 256.961,159.030 256.604,157.600 256.406 C 156.170 256.208,153.200 255.839,151.000 255.586 C 148.800 255.333,146.118 254.958,145.041 254.754 C 142.817 254.333,142.669 254.419,139.896 257.726 C 137.748 260.289,135.393 258.682,159.100 270.823 C 165.579 274.141,165.335 273.717,163.147 277.866 C 162.238 279.590,160.831 282.260,160.020 283.800 C 157.743 288.124,157.499 289.045,158.249 290.495 L 158.882 291.718 243.513 207.087 C 319.372 131.228,328.087 122.386,327.590 121.788 C 326.988 121.062,321.409 117.343,319.244 116.223 C 317.459 115.300,317.953 114.858,322.600 113.222 C 327.982 111.328,331.620 111.479,334.937 113.734 L 336.075 114.508 339.424 111.176 L 342.773 107.844 343.699 108.922 C 344.747 110.141,345.200 110.282,345.200 109.387 C 345.200 108.603,342.615 106.000,341.837 106.000 C 341.513 106.000,341.136 105.820,341.000 105.600 C 340.864 105.380,339.773 105.200,338.576 105.200 C 337.379 105.200,336.400 105.020,336.400 104.800 C 336.400 104.580,335.500 104.400,334.400 104.400 C 333.300 104.400,332.400 104.580,332.400 104.800 M344.984 111.226 C 344.644 111.776,345.115 114.300,345.615 114.610 C 345.842 114.750,346.000 114.016,346.000 112.824 C 346.000 110.921,345.580 110.261,344.984 111.226 M344.970 121.777 C 344.711 122.809,344.995 123.600,345.624 123.600 C 345.831 123.600,346.000 122.970,346.000 122.200 C 346.000 120.596,345.335 120.323,344.970 121.777 M344.000 126.000 C 344.000 126.444,344.267 126.800,344.600 126.800 C 344.933 126.800,345.200 126.444,345.200 126.000 C 345.200 125.556,344.933 125.200,344.600 125.200 C 344.267 125.200,344.000 125.556,344.000 126.000 M343.478 127.456 C 343.158 127.775,343.519 128.400,344.024 128.400 C 344.231 128.400,344.400 128.130,344.400 127.800 C 344.400 127.181,343.928 127.005,343.478 127.456 M342.800 129.400 C 342.800 129.730,342.980 130.000,343.200 130.000 C 343.420 130.000,343.600 129.730,343.600 129.400 C 343.600 129.070,343.420 128.800,343.200 128.800 C 342.980 128.800,342.800 129.070,342.800 129.400 M341.600 131.000 C 341.600 131.330,341.870 131.600,342.200 131.600 C 342.530 131.600,342.800 131.330,342.800 131.000 C 342.800 130.670,342.530 130.400,342.200 130.400 C 341.870 130.400,341.600 130.670,341.600 131.000 M340.000 133.400 C 340.000 133.730,340.270 134.000,340.600 134.000 C 340.930 134.000,341.200 133.730,341.200 133.400 C 341.200 133.070,340.930 132.800,340.600 132.800 C 340.270 132.800,340.000 133.070,340.000 133.400 M338.667 135.467 C 338.206 135.927,338.375 136.400,339.000 136.400 C 339.330 136.400,339.600 136.130,339.600 135.800 C 339.600 135.175,339.127 135.006,338.667 135.467 M336.700 138.157 C 335.923 138.746,335.763 139.600,336.429 139.600 C 336.982 139.600,338.000 138.582,338.000 138.029 C 338.000 137.462,337.558 137.506,336.700 138.157 M334.341 141.468 C 333.979 141.564,333.581 142.030,333.457 142.504 C 333.051 144.058,333.609 143.858,335.149 141.898 C 335.697 141.201,335.581 141.139,334.341 141.468 M330.968 145.326 C 330.020 146.412,329.104 148.038,329.319 148.252 C 329.603 148.537,332.400 145.778,332.400 145.213 C 332.400 144.648,331.497 144.719,330.968 145.326 M320.389 156.282 C 317.905 157.996,314.556 162.000,315.606 162.000 C 316.012 162.000,322.000 156.199,322.000 155.806 C 322.000 155.417,321.377 155.601,320.389 156.282 M311.600 164.773 C 311.600 164.978,311.235 165.262,310.789 165.404 C 309.882 165.691,304.000 171.424,304.000 172.019 C 304.000 172.938,305.051 172.159,308.605 168.605 C 312.421 164.790,312.735 164.400,312.000 164.400 C 311.780 164.400,311.600 164.568,311.600 164.773 M300.397 175.100 C 300.396 175.265,299.727 175.850,298.910 176.400 C 297.221 177.538,294.400 180.320,294.400 180.848 C 294.400 181.703,295.414 180.999,298.206 178.206 C 301.233 175.179,301.522 174.800,300.800 174.800 C 300.580 174.800,300.399 174.935,300.397 175.100 M292.800 182.000 C 292.800 182.220,293.070 182.400,293.400 182.400 C 293.730 182.400,294.000 182.220,294.000 182.000 C 294.000 181.780,293.730 181.600,293.400 181.600 C 293.070 181.600,292.800 181.780,292.800 182.000 M193.176 190.976 C 197.251 195.068,197.428 195.696,194.656 196.216 C 190.653 196.967,186.065 191.170,188.223 188.089 C 189.096 186.842,189.009 186.791,193.176 190.976 M295.272 216.069 C 295.461 217.349,296.400 217.486,296.400 216.233 C 296.400 215.561,296.181 215.200,295.772 215.200 C 295.355 215.200,295.187 215.492,295.272 216.069 M296.186 220.023 C 295.837 220.587,296.312 222.400,296.808 222.400 C 297.023 222.400,297.200 221.770,297.200 221.000 C 297.200 219.637,296.714 219.169,296.186 220.023 M297.067 224.667 C 296.585 225.148,296.788 226.692,297.400 227.200 C 297.917 227.629,298.000 227.469,298.000 226.049 C 298.000 224.504,297.689 224.044,297.067 224.667 M297.756 229.771 C 297.422 230.642,297.739 232.117,298.300 232.302 C 298.645 232.416,298.800 231.961,298.800 230.833 C 298.800 229.241,298.195 228.626,297.756 229.771 M298.554 235.377 C 298.235 236.207,298.518 237.306,299.100 237.500 C 299.438 237.613,299.600 237.202,299.600 236.233 C 299.600 234.801,298.972 234.287,298.554 235.377 M299.344 240.201 C 299.042 240.987,299.505 242.800,300.008 242.800 C 300.223 242.800,300.400 242.080,300.400 241.200 C 300.400 239.617,299.790 239.040,299.344 240.201 M300.243 245.033 C 299.834 246.098,299.970 247.077,300.600 247.600 C 301.119 248.030,301.200 247.847,301.200 246.249 C 301.200 244.422,300.714 243.805,300.243 245.033 M300.954 250.577 C 300.635 251.407,300.918 252.506,301.500 252.700 C 301.838 252.813,302.000 252.402,302.000 251.433 C 302.000 250.001,301.372 249.487,300.954 250.577 M301.756 255.371 C 301.422 256.242,301.739 257.717,302.300 257.902 C 302.645 258.016,302.800 257.561,302.800 256.433 C 302.800 254.841,302.195 254.226,301.756 255.371 M266.979 260.582 C 265.256 262.239,263.521 263.698,263.123 263.824 C 262.359 264.067,262.106 265.200,262.817 265.200 C 263.047 265.200,264.641 263.778,266.360 262.040 C 268.079 260.302,269.814 258.817,270.215 258.740 C 270.968 258.595,271.144 257.915,270.485 257.695 C 270.279 257.626,268.701 258.926,266.979 260.582 M270.800 260.367 C 270.800 260.858,271.058 261.200,271.429 261.200 C 271.802 261.200,272.006 260.928,271.929 260.533 C 271.735 259.530,270.800 259.392,270.800 260.367 M252.400 260.440 C 252.400 260.940,255.950 264.400,256.464 264.400 C 257.157 264.400,256.749 263.673,255.040 261.864 C 253.324 260.047,252.400 259.549,252.400 260.440 M302.586 260.823 C 302.237 261.387,302.712 263.200,303.208 263.200 C 303.423 263.200,303.600 262.570,303.600 261.800 C 303.600 260.437,303.114 259.969,302.586 260.823 M271.600 262.200 C 271.600 262.567,271.793 262.802,272.030 262.723 C 272.267 262.645,272.460 262.409,272.460 262.200 C 272.460 261.991,272.267 261.755,272.030 261.677 C 271.793 261.598,271.600 261.833,271.600 262.200 M272.400 264.367 C 272.400 264.858,272.658 265.200,273.029 265.200 C 273.402 265.200,273.606 264.928,273.529 264.533 C 273.335 263.530,272.400 263.392,272.400 264.367 M257.200 264.571 C 257.200 264.942,257.542 265.200,258.033 265.200 C 259.008 265.200,258.870 264.265,257.867 264.071 C 257.472 263.994,257.200 264.198,257.200 264.571 M259.875 265.058 C 259.353 265.580,259.602 266.000,260.433 266.000 C 260.899 266.000,261.197 265.790,261.108 265.525 C 260.913 264.940,260.246 264.688,259.875 265.058 M303.467 265.467 C 302.985 265.948,303.188 267.492,303.800 268.000 C 304.317 268.429,304.400 268.269,304.400 266.849 C 304.400 265.304,304.089 264.844,303.467 265.467 M273.200 266.200 C 273.200 266.567,273.394 266.802,273.630 266.723 C 273.867 266.645,274.060 266.409,274.060 266.200 C 274.060 265.991,273.867 265.755,273.630 265.677 C 273.394 265.598,273.200 265.833,273.200 266.200 M274.000 268.367 C 274.000 268.858,274.258 269.200,274.629 269.200 C 275.002 269.200,275.206 268.928,275.129 268.533 C 274.935 267.530,274.000 267.392,274.000 268.367 M274.800 270.233 C 274.800 270.582,275.014 270.795,275.275 270.708 C 276.017 270.461,276.140 269.600,275.433 269.600 C 275.085 269.600,274.800 269.885,274.800 270.233 M304.267 270.267 C 303.774 270.759,303.994 272.697,304.600 273.200 C 305.119 273.630,305.200 273.447,305.200 271.849 C 305.200 270.125,304.906 269.627,304.267 270.267 M275.600 272.400 C 275.600 272.844,275.867 273.200,276.200 273.200 C 276.533 273.200,276.800 272.844,276.800 272.400 C 276.800 271.956,276.533 271.600,276.200 271.600 C 275.867 271.600,275.600 271.956,275.600 272.400 M276.400 274.233 C 276.400 274.582,276.614 274.795,276.875 274.708 C 277.617 274.461,277.740 273.600,277.033 273.600 C 276.685 273.600,276.400 273.885,276.400 274.233 M277.200 276.433 C 277.200 277.408,278.135 277.270,278.329 276.267 C 278.406 275.872,278.202 275.600,277.829 275.600 C 277.458 275.600,277.200 275.942,277.200 276.433 M304.954 276.177 C 304.635 277.007,304.918 278.106,305.500 278.300 C 305.838 278.413,306.000 278.002,306.000 277.033 C 306.000 275.601,305.372 275.087,304.954 276.177 M278.000 278.233 C 278.000 278.582,278.214 278.795,278.475 278.708 C 279.217 278.461,279.340 277.600,278.633 277.600 C 278.285 277.600,278.000 277.885,278.000 278.233 M278.800 280.167 C 278.800 280.735,278.980 281.200,279.200 281.200 C 279.420 281.200,279.600 281.560,279.600 282.000 C 279.600 282.876,280.187 283.068,280.638 282.339 C 280.794 282.086,280.613 281.653,280.235 281.376 C 279.857 281.100,279.605 280.561,279.674 280.178 C 279.743 279.796,279.575 279.404,279.300 279.308 C 278.984 279.198,278.800 279.513,278.800 280.167 M305.744 281.001 C 305.442 281.787,305.905 283.600,306.408 283.600 C 306.623 283.600,306.800 282.880,306.800 282.000 C 306.800 280.417,306.190 279.840,305.744 281.001 M280.400 283.800 C 280.400 284.130,280.580 284.400,280.800 284.400 C 281.020 284.400,281.200 284.130,281.200 283.800 C 281.200 283.470,281.020 283.200,280.800 283.200 C 280.580 283.200,280.400 283.470,280.400 283.800 M281.200 285.967 C 281.200 286.458,281.458 286.800,281.829 286.800 C 282.202 286.800,282.406 286.528,282.329 286.133 C 282.135 285.130,281.200 284.992,281.200 285.967 M306.576 286.155 C 306.294 287.277,306.669 288.800,307.227 288.800 C 307.723 288.800,307.709 285.715,307.212 285.407 C 306.998 285.275,306.712 285.612,306.576 286.155 M282.000 287.800 C 282.000 288.167,282.194 288.402,282.430 288.323 C 282.666 288.245,282.860 288.009,282.860 287.800 C 282.860 287.591,282.666 287.356,282.430 287.277 C 282.194 287.198,282.000 287.433,282.000 287.800 M282.800 289.967 C 282.800 290.458,283.058 290.800,283.429 290.800 C 283.802 290.800,284.006 290.528,283.929 290.133 C 283.735 289.130,282.800 288.992,282.800 289.967 M307.467 291.067 C 307.320 291.213,307.200 292.013,307.200 292.843 C 307.200 293.673,307.020 294.464,306.800 294.600 C 306.269 294.928,306.288 295.600,306.829 295.600 C 307.760 295.600,308.400 294.391,308.400 292.629 C 308.400 290.923,308.105 290.429,307.467 291.067 M283.600 291.800 C 283.600 292.167,283.793 292.402,284.030 292.323 C 284.267 292.245,284.460 292.009,284.460 291.800 C 284.460 291.591,284.267 291.356,284.030 291.277 C 283.793 291.198,283.600 291.433,283.600 291.800 M284.400 293.967 C 284.400 294.458,284.658 294.800,285.029 294.800 C 285.402 294.800,285.606 294.528,285.529 294.133 C 285.335 293.130,284.400 292.992,284.400 293.967 M285.200 295.833 C 285.200 296.182,285.414 296.395,285.675 296.308 C 286.417 296.061,286.540 295.200,285.833 295.200 C 285.485 295.200,285.200 295.485,285.200 295.833 M304.496 297.595 C 303.668 298.920,304.305 299.353,305.429 298.229 C 305.743 297.914,306.000 297.464,306.000 297.229 C 306.000 296.512,305.024 296.750,304.496 297.595 M286.000 297.967 C 286.000 298.458,286.258 298.800,286.629 298.800 C 287.002 298.800,287.206 298.528,287.129 298.133 C 286.935 297.130,286.000 296.992,286.000 297.967 M286.800 299.833 C 286.800 300.182,287.014 300.395,287.275 300.308 C 288.017 300.061,288.140 299.200,287.433 299.200 C 287.085 299.200,286.800 299.485,286.800 299.833 M302.358 300.514 C 301.703 301.013,300.947 302.800,301.391 302.800 C 301.526 302.800,302.078 302.358,302.618 301.818 C 304.066 300.371,303.865 299.366,302.358 300.514 M287.600 302.000 C 287.600 302.516,287.803 302.799,288.100 302.700 C 288.375 302.608,288.600 302.293,288.600 302.000 C 288.600 301.707,288.375 301.392,288.100 301.300 C 287.803 301.201,287.600 301.484,287.600 302.000 M288.400 303.833 C 288.400 304.182,288.614 304.395,288.875 304.308 C 289.617 304.061,289.740 303.200,289.033 303.200 C 288.685 303.200,288.400 303.485,288.400 303.833 M298.904 304.781 C 298.594 305.278,298.560 305.652,298.811 305.807 C 299.255 306.081,300.400 305.088,300.400 304.429 C 300.400 303.717,299.426 303.947,298.904 304.781 M289.200 305.767 C 289.200 306.335,289.380 306.800,289.600 306.800 C 289.820 306.800,290.000 307.160,290.000 307.600 C 290.000 308.476,290.587 308.668,291.038 307.939 C 291.194 307.686,291.013 307.253,290.635 306.976 C 290.257 306.700,290.005 306.161,290.074 305.778 C 290.143 305.396,289.975 305.004,289.700 304.908 C 289.384 304.798,289.200 305.113,289.200 305.767 M297.200 307.800 C 297.200 308.130,297.380 308.400,297.600 308.400 C 297.820 308.400,298.000 308.130,298.000 307.800 C 298.000 307.470,297.820 307.200,297.600 307.200 C 297.380 307.200,297.200 307.470,297.200 307.800 M290.800 309.400 C 290.800 309.730,290.980 310.000,291.200 310.000 C 291.420 310.000,291.600 309.730,291.600 309.400 C 291.600 309.070,291.420 308.800,291.200 308.800 C 290.980 308.800,290.800 309.070,290.800 309.400 M295.280 310.480 C 295.016 310.744,294.800 311.104,294.800 311.280 C 294.800 311.869,295.402 311.608,295.907 310.800 C 296.454 309.924,296.045 309.715,295.280 310.480 M291.600 311.429 C 291.600 311.774,291.857 312.314,292.171 312.629 C 292.827 313.284,294.000 313.394,294.000 312.800 C 294.000 312.580,293.751 312.400,293.447 312.400 C 293.142 312.400,292.799 312.040,292.684 311.600 C 292.437 310.654,291.600 310.522,291.600 311.429 " stroke="none" fill="#d9dbdb" fill-rule="evenodd"></path><path id="path1" d="M339.191 111.421 C 336.271 114.366,335.895 114.895,336.487 115.233 C 337.612 115.875,339.200 119.954,339.200 122.200 C 339.200 123.411,338.749 125.212,337.998 127.000 C 337.813 127.440,337.244 128.925,336.733 130.301 C 335.726 133.011,335.388 133.165,334.376 131.373 C 334.012 130.728,333.283 129.441,332.757 128.513 C 331.635 126.537,328.690 122.405,328.400 122.402 C 327.411 122.392,159.122 291.625,159.577 292.172 C 160.700 293.525,167.363 291.243,175.295 286.790 C 176.743 285.977,177.380 286.382,178.622 288.912 C 179.294 290.280,181.891 295.360,184.393 300.200 C 186.895 305.040,189.377 309.855,189.907 310.900 C 191.032 313.116,191.034 313.117,192.600 311.756 C 193.260 311.183,194.394 310.219,195.120 309.615 L 196.441 308.517 195.997 304.558 C 195.752 302.381,195.394 299.340,195.201 297.800 C 195.007 296.260,194.647 293.380,194.400 291.400 C 194.153 289.420,193.793 286.540,193.600 285.000 C 193.407 283.460,193.060 280.541,192.829 278.514 C 192.598 276.487,192.362 274.601,192.305 274.323 C 192.247 274.045,196.080 271.204,200.823 268.009 C 215.124 258.375,216.824 256.976,230.983 243.200 C 235.392 238.910,241.324 233.150,244.165 230.400 C 247.006 227.650,250.126 224.625,251.098 223.678 C 253.275 221.557,253.361 221.585,255.187 225.018 C 258.917 232.029,260.828 235.640,262.389 238.630 L 264.075 241.860 258.038 247.975 L 252.000 254.090 252.000 256.221 C 252.000 257.394,252.172 258.459,252.383 258.589 C 252.593 258.719,252.664 259.090,252.540 259.413 C 252.416 259.736,252.532 260.000,252.797 260.000 C 253.306 260.000,256.800 263.514,256.800 264.026 C 256.800 264.191,257.158 264.232,257.595 264.117 C 258.076 263.992,258.479 264.140,258.614 264.492 C 258.914 265.273,262.400 265.365,262.400 264.591 C 262.400 264.296,262.726 263.951,263.123 263.824 C 263.521 263.698,265.256 262.239,266.979 260.582 C 269.988 257.688,271.143 257.094,270.874 258.578 C 270.805 258.961,271.059 259.501,271.439 259.779 C 271.833 260.067,272.027 260.553,271.890 260.909 C 271.754 261.263,271.897 261.628,272.219 261.752 C 272.545 261.877,272.683 262.240,272.543 262.604 C 272.401 262.976,272.596 263.455,273.015 263.761 C 273.427 264.063,273.629 264.549,273.490 264.909 C 273.354 265.263,273.497 265.628,273.819 265.752 C 274.145 265.877,274.283 266.240,274.143 266.604 C 274.001 266.976,274.196 267.455,274.615 267.761 C 275.048 268.078,275.230 268.544,275.078 268.942 C 274.913 269.371,275.032 269.600,275.420 269.600 C 275.855 269.600,275.948 269.869,275.764 270.600 C 275.569 271.377,275.667 271.600,276.203 271.600 C 276.724 271.600,276.846 271.846,276.702 272.600 C 276.573 273.276,276.690 273.600,277.063 273.600 C 277.452 273.600,277.541 273.895,277.364 274.600 C 277.170 275.376,277.267 275.600,277.800 275.600 C 278.333 275.600,278.430 275.824,278.236 276.600 C 278.047 277.352,278.142 277.600,278.619 277.600 C 279.059 277.600,279.180 277.832,279.015 278.353 C 278.868 278.817,278.999 279.191,279.357 279.328 C 279.699 279.460,279.855 279.867,279.737 280.320 C 279.611 280.802,279.782 281.184,280.195 281.343 C 280.642 281.514,280.773 281.855,280.601 282.398 C 280.454 282.859,280.528 283.200,280.773 283.200 C 281.008 283.200,281.200 283.631,281.200 284.157 C 281.200 284.684,281.490 285.226,281.845 285.362 C 282.246 285.516,282.414 285.902,282.290 286.379 C 282.175 286.819,282.324 287.239,282.637 287.359 C 282.948 287.478,283.081 287.845,282.943 288.204 C 282.801 288.576,282.996 289.055,283.415 289.361 C 283.827 289.663,284.029 290.149,283.890 290.509 C 283.754 290.863,283.897 291.228,284.219 291.352 C 284.545 291.477,284.683 291.840,284.543 292.204 C 284.401 292.576,284.596 293.055,285.015 293.361 C 285.448 293.678,285.630 294.144,285.478 294.542 C 285.313 294.971,285.432 295.200,285.820 295.200 C 286.246 295.200,286.348 295.469,286.178 296.146 C 286.010 296.815,286.138 297.167,286.616 297.351 C 287.052 297.518,287.217 297.891,287.083 298.405 C 286.947 298.924,287.073 299.200,287.445 299.200 C 287.845 299.200,287.944 299.483,287.778 300.146 C 287.612 300.808,287.737 301.167,288.198 301.344 C 288.642 301.514,288.773 301.856,288.601 302.398 C 288.417 302.977,288.528 303.200,289.000 303.200 C 289.458 303.200,289.582 303.425,289.415 303.953 C 289.265 304.425,289.401 304.792,289.781 304.937 C 290.152 305.080,290.288 305.427,290.131 305.834 C 289.974 306.246,290.135 306.644,290.556 306.879 C 290.995 307.125,291.149 307.531,290.991 308.030 C 290.853 308.462,290.934 308.800,291.173 308.800 C 291.408 308.800,291.600 309.231,291.600 309.757 C 291.600 310.284,291.870 310.818,292.200 310.945 C 292.530 311.071,292.800 311.451,292.800 311.787 C 292.800 312.124,293.092 312.400,293.449 312.400 C 293.975 312.400,294.005 312.288,293.609 311.811 C 293.113 311.213,292.654 309.636,292.034 306.400 C 291.715 304.732,290.317 298.046,289.608 294.800 C 289.440 294.030,288.988 292.500,288.604 291.400 C 287.948 289.523,287.626 288.753,285.600 284.204 C 285.160 283.217,284.800 282.315,284.800 282.200 C 284.800 282.085,284.440 281.183,284.000 280.196 C 283.560 279.208,282.840 277.592,282.400 276.604 C 281.960 275.617,281.600 274.715,281.600 274.600 C 281.600 274.485,281.219 273.538,280.753 272.496 C 280.288 271.453,279.658 270.015,279.353 269.300 C 279.049 268.585,278.551 267.415,278.247 266.700 C 277.942 265.985,277.312 264.547,276.847 263.504 C 276.381 262.462,276.000 261.515,276.000 261.400 C 276.000 261.285,275.619 260.338,275.153 259.296 C 273.131 254.771,272.800 253.997,272.800 253.800 C 272.800 253.603,272.469 252.829,270.447 248.304 C 269.981 247.262,269.600 246.322,269.600 246.216 C 269.600 246.110,269.164 245.070,268.631 243.905 C 268.098 242.740,267.274 240.799,266.800 239.593 C 266.326 238.387,265.682 236.815,265.369 236.100 C 264.787 234.771,264.030 233.009,263.047 230.700 C 262.742 229.985,262.136 228.590,261.699 227.600 C 261.262 226.610,260.792 225.437,260.655 224.994 C 260.340 223.976,276.117 207.957,276.781 208.621 C 276.999 208.839,277.362 210.228,277.589 211.709 C 277.815 213.189,278.193 215.615,278.429 217.100 C 278.664 218.585,279.013 220.852,279.203 222.138 C 279.394 223.423,279.809 224.683,280.126 224.938 C 280.443 225.192,280.830 226.120,280.986 227.000 C 281.377 229.206,281.761 231.110,282.798 236.000 C 283.289 238.310,283.847 241.010,284.038 242.000 C 284.230 242.990,284.731 245.420,285.152 247.400 C 286.262 252.619,288.444 263.137,288.804 265.000 C 288.973 265.880,289.332 267.590,289.600 268.800 C 289.868 270.010,290.227 271.720,290.397 272.600 C 290.568 273.480,291.109 276.090,291.600 278.400 C 292.091 280.710,292.635 283.320,292.809 284.200 C 292.984 285.080,293.322 286.790,293.562 288.000 C 293.802 289.210,294.179 291.010,294.400 292.000 C 294.621 292.990,294.979 294.700,295.194 295.800 C 297.067 305.344,297.405 306.592,298.157 306.736 C 298.737 306.847,298.867 306.700,298.713 306.109 C 298.465 305.162,299.117 304.207,300.260 303.845 C 300.824 303.666,301.201 303.120,301.365 302.246 C 301.548 301.268,301.981 300.721,303.005 300.169 C 303.893 299.691,304.331 299.199,304.215 298.810 C 303.975 298.007,304.773 296.989,305.930 296.622 C 306.548 296.426,306.779 296.122,306.622 295.713 C 306.492 295.375,306.546 294.896,306.741 294.649 C 307.502 293.685,307.685 289.228,306.991 288.534 C 306.484 288.027,306.399 287.458,306.607 285.950 C 306.815 284.433,306.731 283.873,306.214 283.357 C 305.692 282.835,305.610 282.263,305.816 280.607 C 306.035 278.859,305.967 278.473,305.402 278.256 C 304.836 278.039,304.771 277.667,305.003 275.975 C 305.226 274.359,305.145 273.802,304.600 273.200 C 304.061 272.605,303.975 272.038,304.187 270.495 C 304.400 268.946,304.320 268.432,303.800 268.000 C 303.282 267.570,303.200 267.053,303.409 265.536 C 303.613 264.054,303.527 263.470,303.036 262.979 C 302.542 262.485,302.455 261.871,302.648 260.232 C 302.856 258.464,302.785 258.080,302.209 257.859 C 301.622 257.634,301.562 257.253,301.794 255.253 C 302.023 253.282,301.961 252.871,301.404 252.657 C 300.854 252.446,300.787 252.044,301.007 250.280 C 301.221 248.569,301.144 248.051,300.609 247.607 C 300.081 247.169,299.999 246.661,300.209 245.136 C 300.415 243.634,300.329 243.072,299.814 242.557 C 299.292 242.035,299.210 241.463,299.416 239.807 C 299.633 238.077,299.564 237.672,299.018 237.462 C 298.466 237.250,298.402 236.831,298.624 234.865 C 298.851 232.862,298.789 232.481,298.199 232.255 C 297.616 232.031,297.550 231.661,297.775 229.861 C 297.988 228.159,297.911 227.624,297.393 227.194 C 296.883 226.771,296.801 226.247,297.009 224.736 C 297.213 223.254,297.127 222.670,296.636 222.179 C 296.142 221.685,296.055 221.071,296.248 219.432 C 296.451 217.705,296.378 217.277,295.848 217.074 C 295.368 216.890,295.200 216.297,295.200 214.790 C 295.200 213.670,295.034 212.000,294.831 211.077 C 294.627 210.155,294.263 208.050,294.020 206.400 C 293.777 204.750,293.415 202.410,293.214 201.200 C 293.014 199.990,292.645 197.650,292.395 196.000 C 291.678 191.269,291.144 187.944,290.800 186.065 C 290.486 184.351,292.162 181.600,293.521 181.600 C 293.734 181.600,294.231 181.105,294.625 180.500 C 295.508 179.145,297.046 177.681,298.949 176.385 C 299.744 175.843,300.396 175.265,300.397 175.100 C 300.399 174.935,300.688 174.800,301.040 174.800 C 301.689 174.800,304.000 172.596,304.000 171.977 C 304.000 171.412,309.920 165.679,310.789 165.404 C 311.235 165.262,311.600 164.978,311.600 164.773 C 311.600 164.568,311.888 164.400,312.240 164.400 C 312.887 164.400,315.200 162.197,315.200 161.580 C 315.200 160.896,320.476 155.996,321.485 155.743 C 322.795 155.414,328.993 149.269,329.330 147.966 C 329.655 146.707,331.172 144.987,332.258 144.644 C 332.835 144.462,333.201 143.918,333.376 142.986 C 333.519 142.224,333.871 141.600,334.157 141.600 C 335.115 141.600,336.372 140.181,336.154 139.347 C 335.997 138.746,336.291 138.369,337.372 137.787 C 338.410 137.228,338.736 136.828,338.572 136.313 C 338.416 135.820,338.656 135.466,339.366 135.143 C 340.146 134.787,340.332 134.470,340.162 133.790 C 339.984 133.081,340.147 132.850,340.975 132.642 C 341.840 132.425,341.970 132.219,341.762 131.391 C 341.575 130.644,341.672 130.400,342.157 130.400 C 342.533 130.400,342.800 130.068,342.800 129.600 C 342.800 129.160,342.999 128.800,343.243 128.800 C 343.486 128.800,343.579 128.523,343.450 128.185 C 343.320 127.847,343.454 127.478,343.747 127.365 C 344.071 127.241,344.208 126.774,344.094 126.180 C 343.954 125.445,344.080 125.200,344.599 125.200 C 345.190 125.200,345.252 124.943,345.028 123.446 C 344.831 122.131,344.919 121.538,345.382 121.075 C 346.232 120.225,346.215 115.754,345.356 114.032 C 344.965 113.248,344.804 112.282,344.945 111.573 C 345.132 110.640,344.943 110.164,344.003 109.203 C 342.543 107.710,343.146 107.432,339.191 111.421 M159.200 162.076 C 161.108 162.992,165.221 164.800,165.398 164.800 C 165.496 164.800,166.530 165.236,167.695 165.769 C 168.860 166.302,170.798 167.126,172.000 167.600 C 173.202 168.074,175.140 168.898,176.305 169.431 C 177.470 169.964,178.504 170.400,178.602 170.400 C 178.700 170.400,179.959 170.940,181.400 171.600 C 182.841 172.260,184.107 172.800,184.214 172.800 C 184.321 172.800,185.217 173.160,186.204 173.600 C 187.192 174.040,188.808 174.760,189.796 175.200 C 190.783 175.640,191.679 176.000,191.786 176.000 C 191.893 176.000,193.159 176.540,194.600 177.200 C 196.041 177.860,197.300 178.400,197.398 178.400 C 197.496 178.400,198.527 178.829,199.688 179.354 C 200.850 179.878,204.050 181.249,206.800 182.400 C 209.550 183.551,212.750 184.922,213.912 185.446 C 215.073 185.971,216.110 186.400,216.216 186.400 C 216.322 186.400,217.262 186.781,218.304 187.247 C 223.569 189.598,225.617 190.400,226.353 190.400 C 227.107 190.400,242.800 174.845,242.800 174.096 C 242.800 173.814,242.295 173.600,241.631 173.600 C 240.987 173.600,239.592 173.429,238.531 173.219 C 237.469 173.010,235.250 172.633,233.600 172.382 C 231.950 172.131,229.501 171.696,228.158 171.416 L 225.716 170.906 224.638 172.257 C 222.801 174.559,222.050 174.870,219.567 174.358 C 218.375 174.113,216.680 173.772,215.800 173.600 C 214.920 173.428,213.210 173.068,212.000 172.800 C 210.790 172.532,209.080 172.173,208.200 172.003 C 207.320 171.832,204.710 171.291,202.400 170.800 C 200.090 170.309,197.480 169.768,196.600 169.597 C 195.720 169.427,194.010 169.068,192.800 168.800 C 191.590 168.532,189.880 168.173,189.000 168.003 C 188.120 167.832,185.510 167.291,183.200 166.800 C 180.890 166.309,178.280 165.768,177.400 165.597 C 176.520 165.427,174.810 165.068,173.600 164.800 C 172.390 164.532,170.680 164.173,169.800 164.003 C 167.139 163.488,159.854 161.994,159.000 161.788 C 158.476 161.662,158.545 161.762,159.200 162.076 M259.492 257.292 C 263.636 261.418,263.775 261.739,261.820 262.671 C 258.218 264.389,252.389 257.918,254.558 254.608 C 255.465 253.224,255.339 253.156,259.492 257.292 " stroke="none" fill="#9bafcd" fill-rule="evenodd"></path><path id="path2" d="M94.900 128.100 C 55.685 167.316,23.600 199.671,23.600 200.001 C 23.600 200.643,165.941 343.200,166.582 343.200 C 166.791 343.200,186.013 324.165,209.296 300.900 L 251.630 258.600 251.394 257.182 C 251.009 254.875,251.753 253.745,257.618 247.726 C 260.688 244.575,263.200 241.811,263.200 241.585 C 263.200 241.208,258.256 231.531,257.589 230.600 C 257.431 230.380,256.454 228.535,255.417 226.500 C 254.381 224.465,253.323 222.802,253.066 222.804 C 252.810 222.807,245.760 229.486,237.400 237.646 C 217.661 256.914,215.609 258.660,201.865 267.886 C 197.429 270.863,193.566 273.517,193.279 273.784 C 192.853 274.182,192.909 275.454,193.594 280.835 C 194.054 284.446,194.607 288.840,194.823 290.600 C 195.040 292.360,195.640 297.040,196.156 301.000 L 197.096 308.200 194.463 310.700 C 190.962 314.025,190.884 314.004,188.384 309.100 C 182.646 297.843,177.062 286.982,176.934 286.829 C 176.856 286.735,173.689 288.119,169.896 289.905 C 160.779 294.197,160.497 294.241,158.185 291.746 C 156.513 289.942,156.824 288.651,160.754 281.062 L 164.307 274.200 162.654 273.376 C 161.744 272.923,156.680 270.324,151.400 267.601 C 146.120 264.878,140.930 262.210,139.868 261.673 C 137.351 260.401,137.231 259.931,138.908 257.896 C 142.604 253.411,141.707 253.665,150.000 254.756 C 151.650 254.974,154.620 255.353,156.600 255.600 C 158.580 255.847,161.550 256.223,163.200 256.437 C 169.842 257.296,172.702 257.641,174.800 257.835 L 177.000 258.039 181.800 250.733 C 186.676 243.312,191.842 236.137,194.136 233.600 C 194.832 232.830,195.913 231.570,196.537 230.800 C 197.161 230.030,200.940 226.066,204.936 221.991 C 208.931 217.916,213.551 213.146,215.202 211.391 C 216.853 209.636,220.408 205.890,223.102 203.067 C 228.821 197.074,228.606 197.647,225.700 196.144 C 224.435 195.489,221.960 194.174,220.200 193.222 C 218.440 192.270,215.650 190.761,214.000 189.869 C 212.350 188.976,210.485 187.988,209.856 187.672 L 208.712 187.098 202.851 192.949 L 196.990 198.800 194.944 198.800 C 188.150 198.800,181.898 190.355,185.346 185.835 C 185.867 185.152,187.397 183.437,188.746 182.023 C 191.297 179.351,191.613 178.800,190.595 178.800 C 190.262 178.800,189.677 178.641,189.295 178.447 C 188.913 178.252,188.105 177.892,187.500 177.647 C 186.895 177.401,185.905 176.996,185.300 176.746 C 183.900 176.169,182.446 175.588,181.300 175.146 C 180.393 174.797,179.160 174.307,177.500 173.636 C 177.005 173.436,170.570 170.900,163.200 168.000 C 155.830 165.100,149.395 162.564,148.900 162.364 C 148.405 162.164,147.550 161.820,147.000 161.600 C 146.450 161.380,145.505 160.996,144.900 160.746 C 144.295 160.497,143.395 160.137,142.900 159.946 C 138.891 158.403,137.200 157.589,137.200 157.204 C 137.200 156.809,140.108 154.597,148.600 148.534 C 158.180 141.693,156.373 142.258,164.500 143.566 C 165.985 143.805,168.415 144.193,169.900 144.429 C 171.385 144.666,173.590 145.019,174.800 145.215 C 179.806 146.025,182.721 146.487,184.800 146.800 C 186.010 146.982,188.215 147.327,189.700 147.566 C 191.185 147.805,193.615 148.193,195.100 148.429 C 196.585 148.666,198.790 149.019,200.000 149.215 C 201.210 149.411,203.460 149.771,205.000 150.015 C 206.540 150.259,208.790 150.619,210.000 150.815 C 215.006 151.625,217.921 152.087,220.000 152.400 C 221.210 152.582,223.415 152.927,224.900 153.166 C 226.385 153.405,228.815 153.793,230.300 154.029 C 231.785 154.266,233.990 154.619,235.200 154.815 C 236.410 155.011,238.660 155.371,240.200 155.615 C 241.740 155.859,244.035 156.226,245.300 156.429 C 248.522 156.949,252.153 157.526,255.200 158.003 C 256.630 158.227,258.880 158.582,260.200 158.791 C 266.434 159.779,266.630 159.778,267.347 158.755 L 268.009 157.810 217.505 107.305 C 189.728 79.527,166.821 56.800,166.600 56.800 C 166.380 56.800,134.114 88.885,94.900 128.100 M325.849 112.721 C 325.740 112.897,324.728 113.293,323.600 113.600 C 322.472 113.907,321.460 114.303,321.351 114.479 C 321.242 114.656,320.814 114.800,320.400 114.800 C 318.756 114.800,319.396 115.551,322.775 117.585 C 324.719 118.755,326.887 120.253,327.594 120.914 L 328.879 122.115 332.313 118.681 L 335.747 115.247 334.774 114.440 C 332.835 112.833,326.530 111.618,325.849 112.721 M141.855 155.468 L 139.909 156.944 141.655 157.466 C 142.615 157.753,143.747 157.991,144.172 157.994 C 144.596 157.997,145.496 158.169,146.172 158.376 C 146.847 158.583,148.480 158.957,149.800 159.208 C 152.631 159.747,154.422 160.134,158.153 161.014 C 159.667 161.372,174.607 164.519,191.353 168.010 L 221.800 174.355 223.519 172.678 L 225.238 171.000 223.719 170.686 C 221.570 170.241,218.489 169.592,216.500 169.165 C 212.337 168.271,211.268 168.048,209.200 167.638 C 207.990 167.398,206.190 167.021,205.200 166.800 C 204.210 166.579,202.410 166.202,201.200 165.962 C 199.990 165.722,198.280 165.370,197.400 165.180 C 196.520 164.990,194.810 164.631,193.600 164.382 C 192.390 164.133,190.680 163.773,189.800 163.582 C 188.920 163.391,187.210 163.031,186.000 162.782 C 184.790 162.533,183.035 162.165,182.100 161.965 C 177.888 161.061,176.854 160.845,174.600 160.400 C 172.346 159.955,171.312 159.739,167.100 158.835 C 166.165 158.635,164.410 158.267,163.200 158.018 C 161.990 157.769,160.280 157.410,159.400 157.220 C 158.520 157.030,156.810 156.678,155.600 156.438 C 154.390 156.198,152.590 155.821,151.600 155.600 C 150.610 155.379,148.900 155.019,147.800 154.800 C 146.700 154.581,145.350 154.309,144.800 154.197 C 144.067 154.046,143.281 154.385,141.855 155.468 M291.635 183.935 C 291.257 184.640,291.349 185.658,292.400 192.400 C 292.588 193.610,292.949 195.950,293.200 197.600 C 293.451 199.250,293.818 201.590,294.014 202.800 C 294.211 204.010,294.559 206.170,294.787 207.600 C 295.016 209.030,295.350 211.100,295.529 212.200 L 295.855 214.200 302.728 207.415 C 306.507 203.684,309.600 200.352,309.600 200.012 C 309.600 199.164,293.562 183.200,292.711 183.200 C 292.335 183.200,291.851 183.531,291.635 183.935 M188.667 188.267 C 188.055 188.879,188.434 191.536,189.291 192.646 C 191.115 195.006,192.092 195.600,194.150 195.600 C 196.500 195.600,196.264 194.882,192.758 191.358 C 189.382 187.964,189.147 187.786,188.667 188.267 " stroke="none" fill="#5ce3e4" fill-rule="evenodd"></path><path id="path3" d="M332.300 118.698 C 328.212 122.806,328.387 122.239,330.399 124.892 C 331.279 126.051,332.271 127.540,332.604 128.200 C 335.182 133.310,335.546 133.495,336.733 130.301 C 337.244 128.925,337.813 127.440,337.998 127.000 C 339.628 123.119,339.509 120.129,337.586 116.600 C 336.567 114.730,336.041 114.939,332.300 118.698 M268.277 216.323 C 259.433 225.175,260.094 223.970,261.873 227.994 C 262.215 228.767,262.744 229.985,263.047 230.700 C 263.968 232.865,264.770 234.731,265.369 236.100 C 265.682 236.815,266.326 238.387,266.800 239.593 C 267.274 240.799,268.098 242.740,268.631 243.905 C 269.164 245.070,269.600 246.110,269.600 246.216 C 269.600 246.322,269.981 247.262,270.447 248.304 C 272.469 252.829,272.800 253.603,272.800 253.800 C 272.800 253.915,273.160 254.817,273.600 255.804 C 274.040 256.792,274.760 258.408,275.200 259.396 C 275.640 260.383,276.000 261.285,276.000 261.400 C 276.000 261.515,276.381 262.462,276.847 263.504 C 277.312 264.547,277.942 265.985,278.247 266.700 C 278.551 267.415,279.049 268.585,279.353 269.300 C 279.658 270.015,280.288 271.453,280.753 272.496 C 281.219 273.538,281.600 274.485,281.600 274.600 C 281.600 274.715,281.981 275.662,282.447 276.704 C 284.469 281.229,284.800 282.003,284.800 282.200 C 284.800 282.315,285.181 283.262,285.647 284.304 C 287.557 288.578,287.936 289.488,288.604 291.400 C 288.988 292.500,289.440 294.030,289.608 294.800 C 290.317 298.046,291.715 304.732,292.034 306.400 C 292.497 308.818,293.096 311.229,293.280 311.413 C 293.362 311.495,293.987 311.041,294.670 310.403 C 295.352 309.765,296.008 309.341,296.128 309.461 C 296.248 309.581,296.257 309.339,296.148 308.924 C 296.034 308.488,296.268 307.881,296.703 307.488 C 297.438 306.823,297.433 306.706,296.518 302.304 C 296.003 299.827,295.406 296.900,295.192 295.800 C 294.977 294.700,294.621 292.990,294.400 292.000 C 294.179 291.010,293.802 289.210,293.562 288.000 C 293.322 286.790,292.984 285.080,292.809 284.200 C 292.635 283.320,292.091 280.710,291.600 278.400 C 291.109 276.090,290.568 273.480,290.397 272.600 C 290.227 271.720,289.868 270.010,289.600 268.800 C 289.332 267.590,288.973 265.880,288.804 265.000 C 288.444 263.137,286.262 252.619,285.152 247.400 C 284.731 245.420,284.230 242.990,284.038 242.000 C 283.847 241.010,283.289 238.310,282.798 236.000 C 281.761 231.110,281.377 229.206,280.986 227.000 C 280.830 226.120,280.444 225.192,280.127 224.938 C 279.810 224.684,279.369 223.244,279.147 221.738 C 278.925 220.232,278.582 218.010,278.386 216.800 C 278.189 215.590,277.840 213.364,277.609 211.854 C 276.908 207.259,277.722 206.869,268.277 216.323 M254.558 254.608 C 252.389 257.918,258.218 264.389,261.820 262.671 C 263.775 261.739,263.636 261.418,259.492 257.292 C 255.339 253.156,255.465 253.224,254.558 254.608 " stroke="none" fill="#59a3cc" fill-rule="evenodd"></path><path id="path4" d="M93.700 127.433 C 46.156 175.021,22.000 199.469,22.000 200.000 C 22.000 201.111,165.290 344.400,166.401 344.400 C 166.932 344.400,181.542 330.060,209.601 301.999 L 252.000 259.597 252.000 256.844 L 252.000 254.090 258.038 247.975 L 264.075 241.860 262.389 238.630 C 260.828 235.640,258.917 232.029,255.187 225.018 C 253.361 221.585,253.275 221.557,251.098 223.678 C 250.126 224.625,247.006 227.650,244.165 230.400 C 241.324 233.150,235.392 238.910,230.983 243.200 C 216.824 256.976,215.124 258.375,200.823 268.009 C 196.080 271.204,192.247 274.045,192.305 274.323 C 192.362 274.601,192.598 276.487,192.829 278.514 C 193.060 280.541,193.407 283.460,193.600 285.000 C 193.793 286.540,194.153 289.420,194.400 291.400 C 194.647 293.380,195.007 296.260,195.201 297.800 C 195.394 299.340,195.752 302.381,195.997 304.558 L 196.441 308.517 195.120 309.615 C 194.394 310.219,193.260 311.183,192.600 311.756 C 191.034 313.117,191.032 313.116,189.907 310.900 C 189.377 309.855,186.895 305.040,184.393 300.200 C 181.891 295.360,179.294 290.280,178.622 288.912 C 177.380 286.382,176.743 285.977,175.295 286.790 C 166.666 291.634,160.790 293.514,159.320 291.900 C 157.255 289.633,157.320 288.927,160.073 283.700 C 160.913 282.105,162.320 279.435,163.200 277.766 C 165.327 273.732,165.564 274.133,159.100 270.823 C 135.393 258.682,137.748 260.289,139.896 257.726 C 142.669 254.419,142.817 254.333,145.041 254.754 C 146.118 254.958,148.800 255.333,151.000 255.586 C 153.200 255.839,156.170 256.208,157.600 256.406 C 159.030 256.604,161.820 256.961,163.800 257.200 C 165.780 257.439,168.570 257.797,170.000 257.997 C 171.430 258.196,173.601 258.467,174.824 258.599 L 177.047 258.838 182.184 251.119 C 188.549 241.553,195.358 232.625,199.378 228.571 C 203.456 224.459,215.613 211.922,217.980 209.389 C 219.618 207.635,222.723 204.382,224.880 202.161 C 229.568 197.330,229.560 197.383,225.900 195.487 C 224.305 194.661,221.560 193.209,219.800 192.260 C 218.040 191.311,214.823 189.588,212.651 188.432 L 208.703 186.330 202.622 192.365 C 195.831 199.105,195.846 199.098,191.928 197.609 C 189.203 196.574,185.921 193.176,185.217 190.661 C 184.479 188.027,185.091 186.716,188.791 183.000 C 191.834 179.944,192.708 178.400,191.395 178.400 C 191.062 178.400,190.477 178.241,190.095 178.047 C 189.360 177.673,187.601 176.924,186.100 176.346 C 185.190 175.996,183.943 175.500,182.300 174.836 C 181.805 174.636,174.020 171.560,165.000 168.000 C 155.980 164.440,148.195 161.364,147.700 161.164 C 145.026 160.083,144.542 159.877,143.905 159.553 C 143.523 159.359,142.938 159.200,142.605 159.200 C 142.272 159.200,142.000 158.996,142.000 158.748 C 142.000 158.441,142.482 158.388,143.500 158.583 C 146.132 159.087,148.141 159.499,150.400 160.000 C 151.610 160.268,153.320 160.627,154.200 160.796 C 155.080 160.966,158.590 161.688,162.000 162.400 C 165.410 163.112,168.920 163.834,169.800 164.004 C 170.680 164.173,172.390 164.532,173.600 164.800 C 174.810 165.068,176.520 165.427,177.400 165.597 C 178.280 165.768,180.890 166.309,183.200 166.800 C 185.510 167.291,188.120 167.832,189.000 168.003 C 189.880 168.173,191.590 168.532,192.800 168.800 C 194.010 169.068,195.720 169.427,196.600 169.597 C 197.480 169.768,200.090 170.309,202.400 170.800 C 204.710 171.291,207.320 171.832,208.200 172.003 C 209.080 172.173,210.790 172.532,212.000 172.800 C 213.210 173.068,214.920 173.428,215.800 173.600 C 216.680 173.772,218.360 174.110,219.534 174.352 C 221.995 174.860,222.535 174.663,224.345 172.601 C 226.172 170.520,226.004 170.368,220.800 169.383 C 220.030 169.237,218.680 168.955,217.800 168.757 C 216.920 168.558,215.390 168.237,214.400 168.043 C 212.638 167.697,207.792 166.683,200.600 165.155 C 198.620 164.734,196.100 164.212,195.000 163.996 C 193.900 163.779,192.190 163.421,191.200 163.200 C 190.210 162.979,188.500 162.619,187.400 162.400 C 186.300 162.181,184.590 161.821,183.600 161.600 C 182.610 161.379,180.900 161.021,179.800 160.804 C 178.700 160.588,176.180 160.066,174.200 159.645 C 167.008 158.117,162.162 157.103,160.400 156.757 C 159.410 156.563,157.790 156.223,156.800 156.001 C 155.810 155.779,154.100 155.424,153.000 155.211 C 151.900 154.998,149.740 154.548,148.200 154.212 C 146.660 153.875,144.995 153.600,144.500 153.600 C 143.072 153.600,143.436 152.948,145.773 151.316 C 146.968 150.482,150.041 148.293,152.603 146.451 C 157.759 142.744,156.747 142.987,162.800 144.000 C 164.230 144.239,166.525 144.607,167.900 144.818 C 169.275 145.028,171.525 145.372,172.900 145.582 C 174.275 145.793,176.570 146.161,178.000 146.400 C 179.430 146.639,181.680 146.999,183.000 147.200 C 184.320 147.401,186.570 147.761,188.000 148.000 C 189.430 148.239,191.680 148.599,193.000 148.800 C 195.493 149.179,199.277 149.778,203.400 150.446 C 204.720 150.660,206.880 150.999,208.200 151.200 C 209.520 151.401,211.770 151.761,213.200 152.000 C 214.630 152.239,216.880 152.599,218.200 152.800 C 219.520 153.001,221.770 153.361,223.200 153.600 C 224.630 153.839,226.925 154.207,228.300 154.418 C 229.675 154.628,231.925 154.972,233.300 155.182 C 234.675 155.393,236.970 155.761,238.400 156.000 C 239.830 156.239,242.080 156.599,243.400 156.800 C 244.720 157.001,246.970 157.361,248.400 157.600 C 249.830 157.839,252.080 158.199,253.400 158.400 C 254.720 158.601,256.880 158.940,258.200 159.154 C 266.669 160.526,266.429 160.522,267.669 159.334 C 268.291 158.738,268.800 158.015,268.800 157.726 C 268.800 156.710,167.285 55.597,166.301 55.633 C 165.657 55.657,144.977 76.109,93.700 127.433 M217.505 107.305 L 268.009 157.810 267.347 158.755 C 266.630 159.778,266.434 159.779,260.200 158.791 C 258.880 158.582,256.630 158.227,255.200 158.003 C 252.153 157.526,248.522 156.949,245.300 156.429 C 244.035 156.226,241.740 155.859,240.200 155.615 C 238.660 155.371,236.410 155.011,235.200 154.815 C 233.990 154.619,231.785 154.266,230.300 154.029 C 228.815 153.793,226.385 153.405,224.900 153.166 C 223.415 152.927,221.210 152.582,220.000 152.400 C 217.921 152.087,215.006 151.625,210.000 150.815 C 208.790 150.619,206.540 150.259,205.000 150.015 C 203.460 149.771,201.210 149.411,200.000 149.215 C 198.790 149.019,196.585 148.666,195.100 148.429 C 193.615 148.193,191.185 147.805,189.700 147.566 C 188.215 147.327,186.010 146.982,184.800 146.800 C 182.721 146.487,179.806 146.025,174.800 145.215 C 173.590 145.019,171.385 144.666,169.900 144.429 C 168.415 144.193,165.985 143.805,164.500 143.566 C 156.373 142.258,158.180 141.693,148.600 148.534 C 140.108 154.597,137.200 156.809,137.200 157.204 C 137.200 157.589,138.891 158.403,142.900 159.946 C 143.395 160.137,144.295 160.497,144.900 160.746 C 145.505 160.996,146.450 161.380,147.000 161.600 C 147.550 161.820,148.405 162.164,148.900 162.364 C 149.395 162.564,155.830 165.100,163.200 168.000 C 170.570 170.900,177.005 173.436,177.500 173.636 C 179.160 174.307,180.393 174.797,181.300 175.146 C 182.446 175.588,183.900 176.169,185.300 176.746 C 185.905 176.996,186.895 177.401,187.500 177.647 C 188.105 177.892,188.913 178.252,189.295 178.447 C 189.677 178.641,190.262 178.800,190.595 178.800 C 191.613 178.800,191.297 179.351,188.746 182.023 C 187.397 183.437,185.867 185.152,185.346 185.835 C 181.898 190.355,188.150 198.800,194.944 198.800 L 196.990 198.800 202.851 192.949 L 208.712 187.098 209.856 187.672 C 210.485 187.988,212.350 188.976,214.000 189.869 C 215.650 190.761,218.440 192.270,220.200 193.222 C 221.960 194.174,224.435 195.489,225.700 196.144 C 228.606 197.647,228.821 197.074,223.102 203.067 C 220.408 205.890,216.853 209.636,215.202 211.391 C 213.551 213.146,208.931 217.916,204.936 221.991 C 200.940 226.066,197.161 230.030,196.537 230.800 C 195.913 231.570,194.832 232.830,194.136 233.600 C 191.842 236.137,186.676 243.312,181.800 250.733 L 177.000 258.039 174.800 257.835 C 172.702 257.641,169.842 257.296,163.200 256.437 C 161.550 256.223,158.580 255.847,156.600 255.600 C 154.620 255.353,151.650 254.974,150.000 254.756 C 141.707 253.665,142.604 253.411,138.908 257.896 C 137.231 259.931,137.351 260.401,139.868 261.673 C 140.930 262.210,146.120 264.878,151.400 267.601 C 156.680 270.324,161.744 272.923,162.654 273.376 L 164.307 274.200 160.754 281.062 C 156.824 288.651,156.513 289.942,158.185 291.746 C 160.497 294.241,160.779 294.197,169.896 289.905 C 173.689 288.119,176.856 286.735,176.934 286.829 C 177.062 286.982,182.646 297.843,188.384 309.100 C 190.884 314.004,190.962 314.025,194.463 310.700 L 197.096 308.200 196.156 301.000 C 195.640 297.040,195.040 292.360,194.823 290.600 C 194.607 288.840,194.054 284.446,193.594 280.835 C 192.909 275.454,192.853 274.182,193.279 273.784 C 193.566 273.517,197.429 270.863,201.865 267.886 C 215.609 258.660,217.661 256.914,237.400 237.646 C 245.760 229.486,252.810 222.807,253.066 222.804 C 253.323 222.802,254.381 224.465,255.417 226.500 C 256.454 228.535,257.431 230.380,257.589 230.600 C 258.256 231.531,263.200 241.208,263.200 241.585 C 263.200 241.811,260.688 244.575,257.618 247.726 C 251.753 253.745,251.009 254.875,251.394 257.182 L 251.630 258.600 209.296 300.900 C 186.013 324.165,166.791 343.200,166.582 343.200 C 165.941 343.200,23.600 200.643,23.600 200.001 C 23.600 199.346,165.946 56.800,166.600 56.800 C 166.821 56.800,189.728 79.527,217.505 107.305 M327.400 111.915 C 325.760 112.072,319.129 114.362,318.450 115.006 C 317.989 115.444,318.119 115.641,319.250 116.224 C 321.373 117.318,326.090 120.434,327.296 121.538 C 327.899 122.090,328.494 122.439,328.620 122.314 C 329.032 121.902,326.373 119.751,322.775 117.585 C 319.396 115.551,318.756 114.800,320.400 114.800 C 320.814 114.800,321.242 114.656,321.351 114.479 C 321.460 114.303,322.472 113.907,323.600 113.600 C 324.728 113.293,325.740 112.897,325.849 112.721 C 326.528 111.623,332.632 112.780,334.687 114.397 C 335.804 115.276,336.413 115.180,335.639 114.247 C 334.436 112.798,330.328 111.635,327.400 111.915 M147.800 154.800 C 148.900 155.019,150.610 155.379,151.600 155.600 C 152.590 155.821,154.390 156.198,155.600 156.438 C 156.810 156.678,158.520 157.030,159.400 157.220 C 160.280 157.410,161.990 157.769,163.200 158.018 C 164.410 158.267,166.165 158.635,167.100 158.835 C 171.312 159.739,172.346 159.955,174.600 160.400 C 176.854 160.845,177.888 161.061,182.100 161.965 C 183.035 162.165,184.790 162.533,186.000 162.782 C 187.210 163.031,188.920 163.391,189.800 163.582 C 190.680 163.773,192.390 164.133,193.600 164.382 C 194.810 164.631,196.520 164.990,197.400 165.180 C 198.280 165.370,199.990 165.722,201.200 165.962 C 202.410 166.202,204.210 166.579,205.200 166.800 C 206.190 167.021,207.990 167.398,209.200 167.638 C 211.268 168.048,212.337 168.271,216.500 169.165 C 218.489 169.592,221.570 170.241,223.719 170.686 L 225.238 171.000 223.519 172.678 L 221.800 174.355 191.353 168.010 C 174.607 164.519,159.667 161.372,158.153 161.014 C 154.422 160.134,152.631 159.747,149.800 159.208 C 148.480 158.957,146.847 158.583,146.172 158.376 C 145.496 158.169,144.596 157.997,144.172 157.994 C 143.747 157.991,142.615 157.753,141.655 157.466 L 139.909 156.944 141.855 155.468 C 143.281 154.385,144.067 154.046,144.800 154.197 C 145.350 154.309,146.700 154.581,147.800 154.800 M291.345 183.391 C 290.619 184.220,290.538 184.626,290.809 186.083 C 291.105 187.676,291.430 189.709,292.460 196.400 C 292.680 197.830,293.022 199.990,293.219 201.200 C 293.417 202.410,293.777 204.750,294.020 206.400 C 294.263 208.050,294.627 210.155,294.831 211.077 C 295.034 212.000,295.200 213.305,295.200 213.977 C 295.200 214.790,295.398 215.200,295.792 215.200 C 296.730 215.200,310.800 200.951,310.800 200.001 C 310.800 198.810,294.282 182.398,293.093 182.407 C 292.602 182.411,291.815 182.854,291.345 183.391 M301.496 191.296 C 305.953 195.749,309.600 199.671,309.600 200.012 C 309.600 200.352,306.507 203.684,302.728 207.415 L 295.855 214.200 295.529 212.200 C 295.350 211.100,295.016 209.030,294.787 207.600 C 294.559 206.170,294.211 204.010,294.014 202.800 C 293.818 201.590,293.451 199.250,293.200 197.600 C 292.949 195.950,292.588 193.610,292.400 192.400 C 290.540 180.464,290.642 180.451,301.496 191.296 M188.223 188.089 C 186.065 191.170,190.653 196.967,194.656 196.216 C 197.428 195.696,197.251 195.068,193.176 190.976 C 189.009 186.791,189.096 186.842,188.223 188.089 M192.758 191.358 C 196.264 194.882,196.500 195.600,194.150 195.600 C 192.092 195.600,191.115 195.006,189.291 192.646 C 188.133 191.147,188.055 188.000,189.175 188.000 C 189.309 188.000,190.921 189.511,192.758 191.358 M296.662 307.531 C 296.298 307.934,296.000 308.465,296.000 308.711 C 296.000 308.958,295.436 309.687,294.746 310.331 C 294.053 310.979,293.617 311.703,293.770 311.951 C 294.209 312.662,294.800 312.474,294.800 311.623 C 294.800 311.195,295.159 310.594,295.597 310.287 C 296.036 309.980,296.276 309.609,296.131 309.464 C 295.986 309.319,296.167 309.200,296.533 309.200 C 296.972 309.200,297.200 308.869,297.200 308.233 C 297.200 307.702,297.425 307.176,297.700 307.065 C 297.989 306.948,298.015 306.850,297.762 306.832 C 297.521 306.814,297.026 307.129,296.662 307.531 " stroke="none" fill="#75dee7" fill-rule="evenodd"></path></g></svg>